,
.   http://www.scenetime.com/signup.php  ---&gt;  Hottest scene tracker on the net !!!  

    Join Now   http://www.scenetime.com/signup.php

    seed back for speed


 



...................................NFO:.................................................[IMG]http://img856.imageshack.us/img856/7202/sleepingbeautyposter01.jpg[/IMG]



[color=blue][size=5][b]Sleeping.Beauty.2011.R5.DVDRip.XVID.AC3.HQ.Hive-CM8[/b][/size][/color]


[b]Thx Hive

CM8 Doing It Right The First Time :D


Source: Russian DVD-R
Spjawaja.krasavica.2011.D.DVD

Encode:
Dvd was not the greatest but ok. did my usual cleanup in sharpness,brightness,rgb
still got nice
enjoy


Video: 720x384 @bitrate 1700 2pass
Audio: English AC3 5.1 @384
Sample: yes included[/b]


[url]http://www.imdb.com/title/tt1588398/[/url]


General
Complete name                  : Sleeping.Beauty.2011.R5.DVDRip.XVID.AC3.HQ.Hive-CM8.avi
Format                         : AVI
Format/Info                    : Audio Video Interleave
File size                      : 1.43 GiB
Duration                       : 1h 37mn
Overall bit rate               : 2 094 Kbps
Writing application            : Nandub v1.0rc2
Writing library                : Nandub build 1853/release

Video
ID                             : 0
Format                         : MPEG-4 Visual
Format profile                 : Advanced Simple@L5
Format settings, BVOP          : 2
Format settings, QPel          : Yes
Format settings, GMC           : No warppoints
Format settings, Matrix        : Default (H.263)
Muxing mode                    : Packed bitstream
Codec ID                       : XVID
Codec ID/Hint                  : XviD
Duration                       : 1h 37mn
Bit rate                       : 1 700 Kbps
Width                          : 720 pixels
Height                         : 384 pixels
Display aspect ratio           : 1.875
Frame rate                     : 25.000 fps
Color space                    : YUV
Chroma subsampling             : 4:2:0
Bit depth                      : 8 bits
Scan type                      : Progressive
Compression mode               : Lossy
Bits/(Pixel*Frame)             : 0.246
Stream size                    : 1.16 GiB (81%)
Writing library                : XviD 1.2.1 (UTC 2008-12-04)

Audio
ID                             : 1
Format                         : AC-3
Format/Info                    : Audio Coding 3
Mode extension                 : CM (complete main)
Codec ID                       : 2000
Duration                       : 1h 37mn
Bit rate mode                  : Constant
Bit rate                       : 384 Kbps
Channel(s)                     : 6 channels
Channel positions              : Front: L C R, Side: L R, LFE
Sampling rate                  : 48.0 KHz
Bit depth                      : 16 bits
Compression mode               : Lossy
Stream size                    : 268 MiB (18%)
Alignment                      : Split accross interleaves
Interleave, duration           : 40 ms (1.00 video frame)
Interleave, preload duration   : 500 ms



Plot:

A haunting portrait of Lucy, a young university student drawn into a mysterious hidden world of unspoken desires. 


Cast:

Emily Browning	... 	Lucy
Rachael Blake	... 	Clara
Ewen Leslie	... 	Birdmann
Peter Carroll	... 	Man 1
Chris Haywood	... 	Man 2


[img]http://img249.imageshack.us/img249/3294/81624587.png[/img]
[img]http://img269.imageshack.us/img269/6046/slsl.png[/img]
[img]http://img810.imageshack.us/img810/6929/slslsl.png[/img]
[img]http://img714.imageshack.us/img714/7889/slslslsl.png[/img]
[img]http://img651.imageshack.us/img651/9859/slslslslsl.png[/img]





Greetz

ViSiON,SiC,SANTi,3LT0N,YanKeeS,MAGNET,THC,T0XiC,LKRG,FANTASIA-PLAY,FANTASIA-M,FLAWL3SS,
D2U,WBZ,BHRG,NOVA,Vik,Rapeseed,SAFC,goldadvance,MEMORY100,KaN1vE,Unevano,Pinnz,Wayne
Mr Hive,cedrict wink,and all P2P groups
Great Work Guys :D

LOOKING FOR ANYTHING YOU WANT TO LOOK AND SOUND BETTER

CM8@hushmail.com